<svg width="32" height="32" viewBox="0 0 100 100" fill="none" xmlns="http://www.w3.org/2000/svg">
  <defs>
    <linearGradient id="fortGradientFavicon" x1="0%" y1="0%" x2="100%" y2="100%">
      <stop offset="0%" stopColor="#dc2626"/>
      <stop offset="50%" stopColor="#b91c1c"/>
      <stop offset="100%" stopColor="#991b1b"/>
    </linearGradient>
    <filter id="glowFavicon" x="-20%" y="-20%" width="140%" height="140%">
      <feGaussianBlur stdDeviation="2" result="coloredBlur"/>
      <feMerge>
        <feMergeNode in="coloredBlur"/>
        <feMergeNode in="SourceGraphic"/>
      </feMerge>
    </filter>
  </defs>
  <path d="M50 5 L55 15 L65 12 L65 25 L75 22 L75 40 L85 38 L85 95 L15 95 L15 38 L25 40 L25 22 L35 25 L35 12 L45 15 Z" fill="url(#fortGradientFavicon)" filter="url(#glowFavicon)"/>
  <rect x="20" y="42" width="8" height="8" fill="#0a0a0a"/>
  <rect x="46" y="42" width="8" height="8" fill="#0a0a0a"/>
  <rect x="72" y="42" width="8" height="8" fill="#0a0a0a"/>
  <path d="M40 95 L40 70 Q50 60 60 70 L60 95 Z" fill="#0a0a0a"/>
  <rect x="28" y="55" width="6" height="10" rx="3" fill="#0a0a0a"/>
  <rect x="47" y="20" width="6" height="10" rx="3" fill="#0a0a0a"/>
  <rect x="66" y="55" width="6" height="10" rx="3" fill="#0a0a0a"/>
  <path d="M50 85 Q50 90 50 90 Q65 85 70 75 L70 65 L50 70 L30 65 L30 75 Q35 85 50 90" fill="#dc2626"/>
</svg>
