<svg width="36" height="36" viewBox="0 0 100 100" fill="none" xmlns="http://www.w3.org/2000/svg" class=""><defs><linearGradient id="fortGradient" x1="0%" y1="0%" x2="100%" y2="100%"><stop offset="0%" stop-color="#dc2626"></stop><stop offset="50%" stop-color="#b91c1c"></stop><stop offset="100%" stop-color="#991b1b"></stop></linearGradient><filter id="glow"><feGaussianBlur stdDeviation="2" result="coloredBlur"></feGaussianBlur><feMerge><feMergeNode in="coloredBlur"></feMergeNode><feMergeNode in="SourceGraphic"></feMergeNode></feMerge></filter></defs><path d="M50 5 L55 15 L65 12 L65 25 L75 22 L75 40 L85 38 L85 95 L15 95 L15 38 L25 40 L25 22 L35 25 L35 12 L45 15 Z" fill="url(#fortGradient)" filter="url(#glow)"></path><rect x="20" y="42" width="8" height="8" fill="#0a0a0a"></rect><rect x="46" y="42" width="8" height="8" fill="#0a0a0a"></rect><rect x="72" y="42" width="8" height="8" fill="#0a0a0a"></rect><path d="M40 95 L40 70 Q50 60 60 70 L60 95 Z" fill="#0a0a0a"></path><rect x="28" y="55" width="6" height="10" rx="3" fill="#0a0a0a"></rect><rect x="47" y="20" width="6" height="10" rx="3" fill="#0a0a0a"></rect><rect x="66" y="55" width="6" height="10" rx="3" fill="#0a0a0a"></rect><path d="M50 85 Q50 90 50 90 Q65 85 70 75 L70 65 L50 70 L30 65 L30 75 Q35 85 50 90" fill="#dc2626" opacity="0.9"></path></svg>
